<svg xmlns="http://www.w3.org/2000/svg" viewBox="0 0 900 900" role="img" aria-label="Disco de vinilo negro con centro rojo vintage">
  <defs>
    <radialGradient id="bgB" cx="50%" cy="45%" r="65%">
      <stop offset="0%" stop-color="#2d1f1b" />
      <stop offset="100%" stop-color="#140f0d" />
    </radialGradient>
    <radialGradient id="discB" cx="65%" cy="25%" r="80%">
      <stop offset="0%" stop-color="#202020" />
      <stop offset="100%" stop-color="#050505" />
    </radialGradient>
  </defs>

  <rect width="900" height="900" fill="url(#bgB)" />
  <circle cx="450" cy="450" r="360" fill="url(#discB)" />

  <circle cx="450" cy="450" r="320" fill="none" stroke="#292929" stroke-width="2" />
  <circle cx="450" cy="450" r="280" fill="none" stroke="#2e2e2e" stroke-width="2" />
  <circle cx="450" cy="450" r="240" fill="none" stroke="#343434" stroke-width="2" />
  <circle cx="450" cy="450" r="200" fill="none" stroke="#393939" stroke-width="2" />
  <circle cx="450" cy="450" r="160" fill="none" stroke="#353535" stroke-width="2" />

  <circle cx="450" cy="450" r="98" fill="#9f2f28" />
  <circle cx="450" cy="450" r="44" fill="#e3b77f" />
  <circle cx="450" cy="450" r="10" fill="#f5e8d1" />

  <g transform="translate(700 170)">
    <circle cx="0" cy="0" r="26" fill="#bbb6b0" />
    <circle cx="0" cy="0" r="10" fill="#807a75" />
    <rect x="-8" y="0" width="16" height="282" rx="8" fill="#afa9a2" transform="rotate(24)" />
    <rect x="-6" y="260" width="12" height="66" rx="6" fill="#d5cec7" transform="rotate(24)" />
    <circle cx="-126" cy="304" r="8" fill="#e2dbd3" />
    <polygon points="-130,311 -118,305 -124,322" fill="#efe8df" />
  </g>
</svg>